<svg width="45" height="45" viewBox="0 0 45 45" fill="none" xmlns="http://www.w3.org/2000/svg">
<path d="M44.2503 31.6618C44.1132 31.5898 41.4035 30.1774 37.5021 29.3934C43.149 22.7912 44.8893 15.1845 44.9666 14.8356C45.0703 14.3671 44.9279 13.8776 44.5887 13.5375C44.3224 13.2703 43.9629 13.1244 43.5938 13.1244C43.4936 13.1244 43.3925 13.1349 43.2914 13.1578C42.9504 13.2325 35.6854 14.8795 29.178 20.1678C29.1789 20.0395 29.1789 19.9103 29.1789 19.7811C29.1789 9.34079 23.9072 0.997534 23.6831 0.647738C23.5562 0.44914 23.3812 0.285703 23.1745 0.172501C22.9677 0.0592984 22.7358 -2.54713e-05 22.5001 8.20406e-09C22.0211 8.20406e-09 21.5746 0.24433 21.3162 0.647738C21.0921 0.997534 15.8205 9.34079 15.8205 19.7811C15.8205 19.9103 15.8213 20.0395 15.8213 20.1678C9.31482 14.8804 2.04982 13.2334 1.70792 13.1578C1.60773 13.1358 1.50665 13.1244 1.40558 13.1244C1.03644 13.1244 0.676972 13.2703 0.410664 13.5375C0.243732 13.7047 0.121667 13.9113 0.0557614 14.1382C-0.0101438 14.3651 -0.0177607 14.605 0.0336153 14.8356C0.110959 15.1845 1.85118 22.7912 7.49813 29.3934C3.59668 30.1774 0.887908 31.5898 0.74992 31.6618C0.523818 31.7813 0.33455 31.9601 0.202475 32.179C0.0703994 32.398 0.000513102 32.6488 0.000332326 32.9045C0.000151551 33.1602 0.0696832 33.4111 0.201449 33.6302C0.333215 33.8494 0.522229 34.0284 0.748163 34.1482C0.963494 34.2616 6.08837 36.936 12.4806 36.936C13.0203 36.936 13.5318 36.9272 14.0187 36.9088C13.0194 38.8625 12.5668 40.2758 12.5413 40.3558C12.3831 40.855 12.5158 41.4007 12.8849 41.7716C13.0663 41.9537 13.2941 42.0826 13.5435 42.1444C13.7929 42.2062 14.0545 42.1986 14.3 42.1223C14.4608 42.0722 17.6152 41.0685 21.0939 38.6692V44.2958C21.0939 44.6843 21.4085 44.9989 21.797 44.9989H23.2032C23.5917 44.9989 23.9063 44.6843 23.9063 44.2958V38.6701C27.385 41.0694 30.5394 42.0722 30.7003 42.1232C30.9457 42.1994 31.2073 42.2071 31.4567 42.1453C31.7061 42.0834 31.9339 41.9545 32.1153 41.7725C32.4844 41.4016 32.6171 40.8558 32.4589 40.3566C32.4335 40.2767 31.9799 38.8634 30.9815 36.9096C31.4684 36.9281 31.9808 36.9369 32.5196 36.9369C38.911 36.9369 44.0367 34.2624 44.252 34.1491C44.7126 33.9047 45.0009 33.4266 45 32.9054C44.9991 32.3834 44.7108 31.9044 44.2503 31.6618Z" fill="#32A258"/>
</svg>
