<svg width="20" height="25" viewBox="0 0 24 25" fill="none" xmlns="http://www.w3.org/2000/svg">
<path d="M22.5333 24.9666L13.7667 16.1999C13.1 16.7777 12.3222 17.2277 11.4333 17.5499C10.5444 17.8721 9.6 18.0332 8.6 18.0332C6.2 18.0332 4.16667 17.1999 2.5 15.5332C0.833333 13.8666 0 11.8554 0 9.49989C0 7.14433 0.833333 5.13322 2.5 3.46655C4.16667 1.79989 6.18889 0.966553 8.56667 0.966553C10.9222 0.966553 12.9278 1.79989 14.5833 3.46655C16.2389 5.13322 17.0667 7.14433 17.0667 9.49989C17.0667 10.4554 16.9111 11.3777 16.6 12.2666C16.2889 13.1554 15.8222 13.9888 15.2 14.7666L24 23.4999L22.5333 24.9666ZM8.56667 16.0332C10.3667 16.0332 11.9 15.3943 13.1667 14.1166C14.4333 12.8388 15.0667 11.2999 15.0667 9.49989C15.0667 7.69989 14.4333 6.161 13.1667 4.88322C11.9 3.60544 10.3667 2.96655 8.56667 2.96655C6.74444 2.96655 5.19444 3.60544 3.91667 4.88322C2.63889 6.161 2 7.69989 2 9.49989C2 11.2999 2.63889 12.8388 3.91667 14.1166C5.19444 15.3943 6.74444 16.0332 8.56667 16.0332Z" fill="#9C9C9C"/>
</svg>
